<svg width="233" height="75" viewBox="0 0 233 75" fill="none" xmlns="http://www.w3.org/2000/svg">
<path d="M3.87997 7.76C1.73711 7.76 -3.05176e-05 6.02287 -3.05176e-05 3.88C-3.05176e-05 1.73714 1.73711 0 3.87997 0C6.02284 0 7.75996 1.73714 7.75996 3.88C7.75996 6.02287 6.02284 7.76 3.87997 7.76Z" fill="#ABB9F0"/>
<path d="M16.8 28.45C14.6571 28.45 12.92 26.7129 12.92 24.57C12.92 22.4271 14.6571 20.69 16.8 20.69C18.9428 20.69 20.68 22.4271 20.68 24.57C20.68 26.7129 18.9428 28.45 16.8 28.45Z" fill="#ABB9F0"/>
<path d="M42.66 28.45C40.5171 28.45 38.78 26.7129 38.78 24.57C38.78 22.4271 40.5171 20.69 42.66 20.69C44.8028 20.69 46.54 22.4271 46.54 24.57C46.54 26.7129 44.8028 28.45 42.66 28.45Z" fill="#ABB9F0"/>
<path d="M68.52 28.45C66.3771 28.45 64.64 26.7129 64.64 24.57C64.64 22.4271 66.3771 20.69 68.52 20.69C70.6628 20.69 72.4 22.4271 72.4 24.57C72.4 26.7129 70.6628 28.45 68.52 28.45Z" fill="#ABB9F0"/>
<path d="M96.96 28.45C94.8171 28.45 93.08 26.7129 93.08 24.57C93.08 22.4271 94.8171 20.69 96.96 20.69C99.1028 20.69 100.84 22.4271 100.84 24.57C100.84 26.7129 99.1028 28.45 96.96 28.45Z" fill="#ABB9F0"/>
<path d="M121.53 28.45C119.387 28.45 117.65 26.7129 117.65 24.57C117.65 22.4271 119.387 20.69 121.53 20.69C123.673 20.69 125.41 22.4271 125.41 24.57C125.41 26.7129 123.673 28.45 121.53 28.45Z" fill="#ABB9F0"/>
<path d="M175.83 28.45C173.687 28.45 171.95 26.7129 171.95 24.57C171.95 22.4271 173.687 20.69 175.83 20.69C177.973 20.69 179.71 22.4271 179.71 24.57C179.71 26.7129 177.973 28.45 175.83 28.45Z" fill="#ABB9F0"/>
<path d="M202.98 28.45C200.837 28.45 199.1 26.7129 199.1 24.57C199.1 22.4271 200.837 20.69 202.98 20.69C205.123 20.69 206.86 22.4271 206.86 24.57C206.86 26.7129 205.123 28.45 202.98 28.45Z" fill="#ABB9F0"/>
<path d="M199.1 53.01C196.957 53.01 195.22 51.2729 195.22 49.13C195.22 46.9871 196.957 45.25 199.1 45.25C201.243 45.25 202.98 46.9871 202.98 49.13C202.98 51.2729 201.243 53.01 199.1 53.01Z" fill="#564F9C"/>
<path d="M170.66 53.01C168.517 53.01 166.78 51.2729 166.78 49.13C166.78 46.9871 168.517 45.25 170.66 45.25C172.803 45.25 174.54 46.9871 174.54 49.13C174.54 51.2729 172.803 53.01 170.66 53.01Z" fill="#ABB9F0"/>
<path d="M223.67 53.01C221.527 53.01 219.79 51.2729 219.79 49.13C219.79 46.9871 221.527 45.25 223.67 45.25C225.813 45.25 227.55 46.9871 227.55 49.13C227.55 51.2729 225.813 53.01 223.67 53.01Z" fill="#ABB9F0"/>
<path d="M82.74 53.01C80.5971 53.01 78.86 51.2729 78.86 49.13C78.86 46.9871 80.5971 45.25 82.74 45.25C84.8828 45.25 86.62 46.9871 86.62 49.13C86.62 51.2729 84.8828 53.01 82.74 53.01Z" fill="#ABB9F0"/>
<path d="M212.03 74.99C209.887 74.99 208.15 73.2529 208.15 71.11C208.15 68.9671 209.887 67.23 212.03 67.23C214.173 67.23 215.91 68.9671 215.91 71.11C215.91 73.2529 214.173 74.99 212.03 74.99Z" fill="#564F9C"/>
<path d="M184.88 74.99C182.737 74.99 181 73.2529 181 71.11C181 68.9671 182.737 67.23 184.88 67.23C187.023 67.23 188.76 68.9671 188.76 71.11C188.76 73.2529 187.023 74.99 184.88 74.99Z" fill="#564F9C"/>
<path d="M131.87 74.99C129.727 74.99 127.99 73.2529 127.99 71.11C127.99 68.9671 129.727 67.23 131.87 67.23C134.013 67.23 135.75 68.9671 135.75 71.11C135.75 73.2529 134.013 74.99 131.87 74.99Z" fill="#ABB9F0"/>
<path d="M106.02 74.99C103.877 74.99 102.14 73.2529 102.14 71.11C102.14 68.9671 103.877 67.23 106.02 67.23C108.163 67.23 109.9 68.9671 109.9 71.11C109.9 73.2529 108.163 74.99 106.02 74.99Z" fill="#564F9C"/>
<path d="M228.84 28.45C226.697 28.45 224.96 26.7129 224.96 24.57C224.96 22.4271 226.697 20.69 228.84 20.69C230.983 20.69 232.72 22.4271 232.72 24.57C232.72 26.7129 230.983 28.45 228.84 28.45Z" fill="#ABB9F0"/>
<path d="M29.73 7.76C27.5871 7.76 25.85 6.02287 25.85 3.88C25.85 1.73714 27.5871 0 29.73 0C31.8728 0 33.61 1.73714 33.61 3.88C33.61 6.02287 31.8728 7.76 29.73 7.76Z" fill="#ABB9F0"/>
<path d="M81.45 7.76C79.3071 7.76 77.57 6.02287 77.57 3.88C77.57 1.73714 79.3071 0 81.45 0C83.5928 0 85.33 1.73714 85.33 3.88C85.33 6.02287 83.5928 7.76 81.45 7.76Z" fill="#ABB9F0"/>
<path d="M109.89 7.76C107.747 7.76 106.01 6.02287 106.01 3.88C106.01 1.73714 107.747 0 109.89 0C112.033 0 113.77 1.73714 113.77 3.88C113.77 6.02287 112.033 7.76 109.89 7.76Z" fill="#ABB9F0"/>
<path d="M135.75 7.76C133.607 7.76 131.87 6.02287 131.87 3.88C131.87 1.73714 133.607 0 135.75 0C137.893 0 139.63 1.73714 139.63 3.88C139.63 6.02287 137.893 7.76 135.75 7.76Z" fill="#ABB9F0"/>
<path d="M188.76 7.76C186.617 7.76 184.88 6.02287 184.88 3.88C184.88 1.73714 186.617 0 188.76 0C190.903 0 192.64 1.73714 192.64 3.88C192.64 6.02287 190.903 7.76 188.76 7.76Z" fill="#ABB9F0"/>
<path d="M161.61 7.76C159.467 7.76 157.73 6.02287 157.73 3.88C157.73 1.73714 159.467 0 161.61 0C163.753 0 165.49 1.73714 165.49 3.88C165.49 6.02287 163.753 7.76 161.61 7.76Z" fill="#ABB9F0"/>
<path d="M215.91 7.76C213.767 7.76 212.03 6.02287 212.03 3.88C212.03 1.73714 213.767 0 215.91 0C218.053 0 219.79 1.73714 219.79 3.88C219.79 6.02287 218.053 7.76 215.91 7.76Z" fill="#ABB9F0"/>
</svg>
