<svg width="233" height="75" viewBox="0 0 233 75" fill="none" xmlns="http://www.w3.org/2000/svg">
<path d="M3.88 7.76C6.02287 7.76 7.76 6.02287 7.76 3.88C7.76 1.73714 6.02287 0 3.88 0C1.73714 0 0 1.73714 0 3.88C0 6.02287 1.73714 7.76 3.88 7.76Z" fill="#CCCCCC"/>
<path d="M16.81 28.45C18.9529 28.45 20.69 26.7129 20.69 24.57C20.69 22.4271 18.9529 20.69 16.81 20.69C14.6671 20.69 12.93 22.4271 12.93 24.57C12.93 26.7129 14.6671 28.45 16.81 28.45Z" fill="#CCCCCC"/>
<path d="M42.67 28.45C44.8129 28.45 46.55 26.7129 46.55 24.57C46.55 22.4271 44.8129 20.69 42.67 20.69C40.5271 20.69 38.79 22.4271 38.79 24.57C38.79 26.7129 40.5271 28.45 42.67 28.45Z" fill="#CCCCCC"/>
<path d="M68.52 28.45C70.6629 28.45 72.4 26.7129 72.4 24.57C72.4 22.4271 70.6629 20.69 68.52 20.69C66.3771 20.69 64.64 22.4271 64.64 24.57C64.64 26.7129 66.3771 28.45 68.52 28.45Z" fill="#CCCCCC"/>
<path d="M96.97 28.45C99.1129 28.45 100.85 26.7129 100.85 24.57C100.85 22.4271 99.1129 20.69 96.97 20.69C94.8271 20.69 93.09 22.4271 93.09 24.57C93.09 26.7129 94.8271 28.45 96.97 28.45Z" fill="#CCCCCC"/>
<path d="M121.53 28.45C123.673 28.45 125.41 26.7129 125.41 24.57C125.41 22.4271 123.673 20.69 121.53 20.69C119.387 20.69 117.65 22.4271 117.65 24.57C117.65 26.7129 119.387 28.45 121.53 28.45Z" fill="#CCCCCC"/>
<path d="M175.84 28.45C177.983 28.45 179.72 26.7129 179.72 24.57C179.72 22.4271 177.983 20.69 175.84 20.69C173.697 20.69 171.96 22.4271 171.96 24.57C171.96 26.7129 173.697 28.45 175.84 28.45Z" fill="#CCCCCC"/>
<path d="M202.99 28.45C205.133 28.45 206.87 26.7129 206.87 24.57C206.87 22.4271 205.133 20.69 202.99 20.69C200.847 20.69 199.11 22.4271 199.11 24.57C199.11 26.7129 200.847 28.45 202.99 28.45Z" fill="#CCCCCC"/>
<path d="M199.11 53.01C201.253 53.01 202.99 51.2729 202.99 49.13C202.99 46.9871 201.253 45.25 199.11 45.25C196.967 45.25 195.23 46.9871 195.23 49.13C195.23 51.2729 196.967 53.01 199.11 53.01Z" fill="#FF1744"/>
<path d="M170.66 53.01C172.803 53.01 174.54 51.2729 174.54 49.13C174.54 46.9871 172.803 45.25 170.66 45.25C168.517 45.25 166.78 46.9871 166.78 49.13C166.78 51.2729 168.517 53.01 170.66 53.01Z" fill="#CCCCCC"/>
<path d="M223.67 53.01C225.813 53.01 227.55 51.2729 227.55 49.13C227.55 46.9871 225.813 45.25 223.67 45.25C221.527 45.25 219.79 46.9871 219.79 49.13C219.79 51.2729 221.527 53.01 223.67 53.01Z" fill="#CCCCCC"/>
<path d="M82.75 53.01C84.8929 53.01 86.63 51.2729 86.63 49.13C86.63 46.9871 84.8929 45.25 82.75 45.25C80.6071 45.25 78.87 46.9871 78.87 49.13C78.87 51.2729 80.6071 53.01 82.75 53.01Z" fill="#CCCCCC"/>
<path d="M212.04 74.99C214.183 74.99 215.92 73.2529 215.92 71.11C215.92 68.9671 214.183 67.23 212.04 67.23C209.897 67.23 208.16 68.9671 208.16 71.11C208.16 73.2529 209.897 74.99 212.04 74.99Z" fill="#FF1744"/>
<path d="M184.89 74.99C187.033 74.99 188.77 73.2529 188.77 71.11C188.77 68.9671 187.033 67.23 184.89 67.23C182.747 67.23 181.01 68.9671 181.01 71.11C181.01 73.2529 182.747 74.99 184.89 74.99Z" fill="#FF1744"/>
<path d="M131.88 74.99C134.023 74.99 135.76 73.2529 135.76 71.11C135.76 68.9671 134.023 67.23 131.88 67.23C129.737 67.23 128 68.9671 128 71.11C128 73.2529 129.737 74.99 131.88 74.99Z" fill="#CCCCCC"/>
<path d="M106.02 74.99C108.163 74.99 109.9 73.2529 109.9 71.11C109.9 68.9671 108.163 67.23 106.02 67.23C103.877 67.23 102.14 68.9671 102.14 71.11C102.14 73.2529 103.877 74.99 106.02 74.99Z" fill="#FF1744"/>
<path d="M228.84 28.45C230.983 28.45 232.72 26.7129 232.72 24.57C232.72 22.4271 230.983 20.69 228.84 20.69C226.697 20.69 224.96 22.4271 224.96 24.57C224.96 26.7129 226.697 28.45 228.84 28.45Z" fill="#CCCCCC"/>
<path d="M29.74 7.76C31.8829 7.76 33.62 6.02287 33.62 3.88C33.62 1.73714 31.8829 0 29.74 0C27.5971 0 25.86 1.73714 25.86 3.88C25.86 6.02287 27.5971 7.76 29.74 7.76Z" fill="#CCCCCC"/>
<path d="M81.45 7.76C83.5929 7.76 85.33 6.02287 85.33 3.88C85.33 1.73714 83.5929 0 81.45 0C79.3071 0 77.57 1.73714 77.57 3.88C77.57 6.02287 79.3071 7.76 81.45 7.76Z" fill="#CCCCCC"/>
<path d="M109.9 7.76C112.043 7.76 113.78 6.02287 113.78 3.88C113.78 1.73714 112.043 0 109.9 0C107.757 0 106.02 1.73714 106.02 3.88C106.02 6.02287 107.757 7.76 109.9 7.76Z" fill="#ED565A"/>
<path d="M188.76 7.76C190.903 7.76 192.64 6.02287 192.64 3.88C192.64 1.73714 190.903 0 188.76 0C186.617 0 184.88 1.73714 184.88 3.88C184.88 6.02287 186.617 7.76 188.76 7.76Z" fill="#CCCCCC"/>
<path d="M161.61 7.76C163.753 7.76 165.49 6.02287 165.49 3.88C165.49 1.73714 163.753 0 161.61 0C159.467 0 157.73 1.73714 157.73 3.88C157.73 6.02287 159.467 7.76 161.61 7.76Z" fill="#CCCCCC"/>
<path d="M215.92 7.76C218.063 7.76 219.8 6.02287 219.8 3.88C219.8 1.73714 218.063 0 215.92 0C213.777 0 212.04 1.73714 212.04 3.88C212.04 6.02287 213.777 7.76 215.92 7.76Z" fill="#CCCCCC"/>
</svg>
