<?xml version="1.0" encoding="utf-8"?>
<!-- Generator: Adobe Illustrator 25.4.1, SVG Export Plug-In . SVG Version: 6.00 Build 0)  -->
<svg version="1.1" id="Capa_1" xmlns="http://www.w3.org/2000/svg" xmlns:xlink="http://www.w3.org/1999/xlink" x="0px" y="0px"
	 viewBox="0 0 509.61 69.38" style="enable-background:new 0 0 509.61 69.38;" xml:space="preserve">
<style type="text/css">
	.st0{fill:none;stroke:#FFFFFF;stroke-miterlimit:10;}
	.st1{fill:none;stroke:url(#SVGID_1_);stroke-width:3.7189;stroke-miterlimit:10;}
	.st2{fill:url(#SVGID_00000046315065047147518520000016203569477022795672_);}
	.st3{fill:none;stroke:url(#SVGID_00000043445698891635288210000002498465823377499017_);stroke-width:2;stroke-miterlimit:10;}
	.st4{fill:none;stroke:url(#SVGID_00000044876486933617504320000005495280903374948252_);stroke-miterlimit:10;}
	.st5{fill:none;stroke:url(#SVGID_00000106128048010626449470000011701091217305829776_);stroke-miterlimit:10;}
	.st6{fill:none;stroke:#F75B53;stroke-width:2;stroke-miterlimit:10;}
	.st7{fill:none;stroke:#808080;stroke-width:1.0647;stroke-miterlimit:10;}
	.st8{fill:none;stroke:#00A99D;stroke-width:0.5;stroke-miterlimit:10;}
	.st9{fill:#00A99D;}
	.st10{fill:none;stroke:#4D4D4D;stroke-width:0.5;stroke-miterlimit:10;}
	.st11{fill:none;stroke:#4D4D4D;stroke-width:0.5;stroke-miterlimit:10;stroke-dasharray:8.0685,8.0685;}
	.st12{fill:none;stroke:#EBECEC;stroke-width:2.3318;stroke-miterlimit:22.9256;}
	
		.st13{fill:none;stroke:#D2D3D5;stroke-width:2.3318;stroke-linecap:round;stroke-linejoin:round;stroke-miterlimit:22.9256;stroke-dasharray:2.3445,6.9925;}
	.st14{fill:none;stroke:#00AFEF;stroke-width:0.8885;stroke-miterlimit:22.9256;}
	.st15{fill:none;stroke:#D2D3D5;stroke-width:2.3318;stroke-miterlimit:22.9256;}
	.st16{fill-rule:evenodd;clip-rule:evenodd;fill:#00AFEF;}
	.st17{fill-rule:evenodd;clip-rule:evenodd;fill:#BDEBFF;}
	.st18{fill:#242954;}
	.st19{fill:url(#SVGID_00000048492269892902020400000007778642067034827932_);}
	.st20{fill:url(#SVGID_00000092437232033725280430000001088580495628956547_);}
	.st21{fill:url(#SVGID_00000138554745713872222170000014165276636779163021_);}
	.st22{fill:url(#SVGID_00000091724672187316502840000011279919313390057645_);}
	.st23{fill:#FFFFFF;}
	.st24{fill:none;stroke:#3A609B;stroke-width:2;stroke-miterlimit:10;}
	.st25{fill:#FF6056;}
	.st26{fill:#25BD9B;}
	.st27{fill:#3A609B;}
	.st28{fill:#564FAA;}
	.st29{fill:none;stroke:#202556;stroke-miterlimit:10;}
	.st30{fill:#202556;}
	.st31{fill:#636587;}
	.st32{fill:none;stroke:#25BD9B;stroke-width:2;stroke-miterlimit:10;}
	.st33{fill:url(#SVGID_00000114031361316381436860000014133581589155274927_);}
	.st34{fill:url(#SVGID_00000069365703839702334760000016965481133475441327_);}
	.st35{fill:url(#SVGID_00000109712533541804383540000006698309947362488758_);}
	.st36{fill:url(#SVGID_00000157271593986166933050000005976682793808425112_);}
	.st37{fill:url(#SVGID_00000083779490474632550180000000442220894578663574_);}
	.st38{fill:url(#SVGID_00000116223738822851407650000011011696042935008142_);}
	.st39{fill:url(#SVGID_00000018201806871641623170000014150351759807425179_);}
	.st40{fill:url(#SVGID_00000088837601748977178710000011823753633540627367_);}
	.st41{fill:url(#SVGID_00000173120904479698314670000017880016542025313427_);}
	.st42{fill:url(#SVGID_00000044175375734347072760000011980568913851801497_);}
	.st43{fill:url(#SVGID_00000157291025117343688760000006689473582723876781_);}
	.st44{fill:url(#SVGID_00000119826561267831481710000013280859952788146319_);}
	.st45{fill:url(#SVGID_00000045596341837736692670000004481860258223634620_);}
	.st46{fill:url(#SVGID_00000145740148897602798660000013700545428851045545_);}
	.st47{fill:url(#SVGID_00000142887976499551395340000015000599839631456671_);}
	.st48{fill:url(#SVGID_00000172410199421103862830000014838193827144208573_);}
	.st49{fill:url(#SVGID_00000082351423161129049700000018347309114047690881_);}
	.st50{fill:url(#SVGID_00000128452939039522455920000000835750101681009594_);}
	.st51{fill:url(#SVGID_00000098181200306704022090000003314943785865857680_);}
	.st52{fill:url(#SVGID_00000059286903530933793040000012576070725308632492_);}
	.st53{fill:url(#SVGID_00000000212536875120605660000013015260401682901175_);}
	.st54{fill:url(#SVGID_00000008835646624902685710000015039347744663842208_);}
	.st55{fill:#F2F2F2;}
	.st56{fill:#808080;}
	.st57{fill:none;stroke:#00A99D;stroke-width:0.4285;stroke-miterlimit:10;}
	.st58{fill:none;stroke:#4D4D4D;stroke-width:0.4285;stroke-miterlimit:10;}
	.st59{fill:none;stroke:#4D4D4D;stroke-width:0.4285;stroke-miterlimit:10;stroke-dasharray:6.9151,6.9151;}
	.st60{fill:url(#SVGID_00000089545967643092828300000014629953514591223963_);}
	.st61{fill:url(#SVGID_00000127008243820144900070000015637696589865195173_);}
	.st62{fill:url(#SVGID_00000002357820958564422220000000222238404386022036_);}
	.st63{fill:url(#SVGID_00000022540202214925233240000003090943988003881650_);}
	.st64{fill:#96989A;}
	.st65{fill:none;stroke:#EBECEC;stroke-width:1.9985;stroke-miterlimit:22.9256;}
	
		.st66{fill:none;stroke:#D2D3D5;stroke-width:1.9985;stroke-linecap:round;stroke-linejoin:round;stroke-miterlimit:22.9256;stroke-dasharray:2.0094,5.9929;}
	.st67{fill:none;stroke:#00AFEF;stroke-width:0.7615;stroke-miterlimit:22.9256;}
	.st68{fill:none;stroke:#D2D3D5;stroke-width:1.9985;stroke-miterlimit:22.9256;}
	.st69{fill:#FEFEFE;}
	.st70{fill:url(#SVGID_00000037681317278096965270000011552124031915081355_);}
	.st71{fill:url(#SVGID_00000054950425605906268140000018015319904288354227_);}
	.st72{fill:url(#SVGID_00000104699594375538166490000006286708325586357403_);}
	.st73{fill:url(#SVGID_00000180364463359335643450000006376249934756677039_);}
	.st74{fill:#F75B53;}
	.st75{fill:url(#SVGID_00000155147090018537881020000016448509666310739877_);}
	.st76{fill:url(#SVGID_00000177463943021546153800000004445531195524173757_);}
	.st77{fill:url(#SVGID_00000065775938215702167170000001416228800928087478_);}
	.st78{fill:url(#SVGID_00000162333854980920479050000011326500060538856586_);}
	.st79{fill:url(#SVGID_00000091731093618854163700000012506555647669854909_);}
	.st80{fill:url(#SVGID_00000068675551740781131440000003585413705945889425_);}
	.st81{fill:url(#SVGID_00000105406319477795139750000003449689457294057147_);}
	.st82{fill:url(#SVGID_00000146485278959141585920000001294840984319534004_);}
	.st83{fill:none;stroke:#808080;stroke-width:0.9597;stroke-miterlimit:10;}
	.st84{fill:url(#SVGID_00000060003924884770780500000008947606188859339921_);}
	.st85{fill:url(#SVGID_00000076604392438403225230000004522772565702090135_);}
	.st86{fill:url(#SVGID_00000056404557124417262740000000175149244023013822_);}
	.st87{fill:url(#SVGID_00000005965961290747847080000014676269245143419780_);}
	.st88{fill:url(#SVGID_00000083793635726254620980000003219028693506140835_);}
	.st89{fill:url(#SVGID_00000155864812976911376910000012664919733098922900_);}
	.st90{fill:url(#SVGID_00000163793420866083037670000004032139816740192953_);}
	.st91{fill:url(#SVGID_00000083773908149470204800000013563514134173451446_);}
	.st92{fill:url(#SVGID_00000181046184519394669070000010421596049667601072_);}
	.st93{fill:url(#SVGID_00000127733252887587309610000015605259327131525548_);}
	.st94{fill:url(#SVGID_00000141415827344500965610000009277857577195356083_);}
	.st95{fill:url(#SVGID_00000181068920110244106990000014681102266533835394_);}
	.st96{fill:url(#SVGID_00000011021193899614938740000006639388509781958554_);}
	.st97{fill:url(#SVGID_00000059308623251631551850000001355992331818153660_);}
	.st98{fill:url(#SVGID_00000129164795706194511930000014889874519233594240_);}
	.st99{fill:url(#SVGID_00000075852396792328593310000017986482900009747592_);}
	.st100{fill:url(#SVGID_00000054980551862060144800000009450440700647441823_);}
	.st101{fill:url(#SVGID_00000124123710991735626050000012460952984068259723_);}
	.st102{fill:url(#SVGID_00000073701949978441189970000015580340557775623345_);}
	.st103{fill:url(#SVGID_00000128459569243660439400000009845164326123403657_);}
	.st104{fill:url(#SVGID_00000169554115487816212030000012378843476180803738_);}
	.st105{fill:url(#SVGID_00000083793634533548692050000004000785029256379048_);}
	.st106{fill:none;stroke:#FFFFFF;stroke-width:0.9597;stroke-miterlimit:10;}
	.st107{fill:url(#SVGID_00000140003213418012832510000005415826331563440043_);}
	.st108{fill:url(#SVGID_00000159449019387414956720000005567669080433994392_);}
	.st109{fill:url(#SVGID_00000003071431198618267030000001529240920727767692_);}
	.st110{fill:url(#SVGID_00000102532587791432722690000017103455959124587687_);}
	.st111{fill:url(#SVGID_00000050657281952308778700000016325221372322292645_);}
	.st112{fill:url(#SVGID_00000158731910807787843200000006712360428628150973_);}
	.st113{fill:url(#SVGID_00000070813456337420324260000006631127331827846286_);}
	.st114{fill:url(#SVGID_00000083079878070788444730000017481482926673090949_);}
	.st115{fill:url(#SVGID_00000059295607095627436030000001831051456382151575_);}
	.st116{fill:url(#SVGID_00000163791949448790320180000004205037642475792797_);}
	.st117{fill:url(#SVGID_00000127744042684206919390000006590562226951394700_);}
	.st118{fill:url(#SVGID_00000146494691444573700700000004887256789732071321_);}
	.st119{fill:url(#SVGID_00000059275645486146316210000011945748207486512281_);}
	.st120{fill:url(#SVGID_00000168806974560154990010000013380967712432878232_);}
	.st121{fill:none;stroke:#B3B3B3;stroke-width:0.696;stroke-miterlimit:10;}
	.st122{fill:url(#SVGID_00000085954671495801856570000007595638362380535740_);}
	.st123{fill:url(#SVGID_00000181782512091640209300000004232882529888968383_);}
	.st124{fill:url(#SVGID_00000075148989979192629570000011711533032858174347_);}
	.st125{fill:url(#SVGID_00000162353369641481044960000011909551589504758155_);}
	.st126{fill:url(#SVGID_00000004519120133718393200000009636012439313541804_);}
</style>
<g>
	<g>
		<path class="st23" d="M40.94,9.56c-0.38,0.38-0.9,0.57-1.56,0.57H26.42v42.42c0,0.66-0.19,1.18-0.57,1.56
			c-0.38,0.38-0.9,0.57-1.56,0.57h-7.03c-0.66,0-1.18-0.19-1.56-0.57c-0.38-0.38-0.57-0.9-0.57-1.56V10.13h-13
			c-0.66,0-1.18-0.19-1.56-0.57C0.19,9.18,0,8.66,0,7.99V2.52c0-0.66,0.19-1.18,0.57-1.56c0.38-0.38,0.9-0.57,1.56-0.57h37.25
			c0.66,0,1.18,0.19,1.56,0.57c0.38,0.38,0.57,0.9,0.57,1.56v5.47C41.51,8.66,41.32,9.18,40.94,9.56"/>
		<path class="st23" d="M329.32,9.56c-0.38,0.38-0.9,0.57-1.56,0.57h-10.29v42.42c0,0.66-0.19,1.18-0.57,1.56
			c-0.38,0.38-0.9,0.57-1.56,0.57h-7.03c-0.66,0-1.18-0.19-1.56-0.57c-0.38-0.38-0.57-0.9-0.57-1.56V10.13h-13
			c-0.66,0-1.18-0.19-1.56-0.57c-0.38-0.38-0.57-0.9-0.57-1.56V2.52c0-0.66,0.19-1.18,0.57-1.56c0.38-0.38,0.9-0.57,1.56-0.57h34.59
			c0.66,0,1.18,0.19,1.56,0.57c0.38,0.38,0.57,0.9,0.57,1.56v5.47C329.89,8.66,329.7,9.18,329.32,9.56"/>
		<path class="st23" d="M62.59,15.47c0.38,0.38,0.57,0.92,0.57,1.63v6.04c0,1.28-0.71,1.99-2.13,2.13c-1.52,0.1-3.03,0.46-4.55,1.1
			c-1.52,0.64-2.89,1.62-4.12,2.95c-1.7,1.85-2.56,4.55-2.56,8.1v15.13c0,0.66-0.19,1.18-0.57,1.56c-0.38,0.38-0.9,0.57-1.56,0.57
			h-6.32c-0.66,0-1.18-0.19-1.56-0.57c-0.38-0.38-0.57-0.9-0.57-1.56V17.74c0-0.66,0.19-1.18,0.57-1.56
			c0.38-0.38,0.9-0.57,1.56-0.57h6.32c0.66,0,1.18,0.19,1.56,0.57c0.38,0.38,0.57,0.9,0.57,1.56v3.05c1.37-1.8,3.05-3.17,5.04-4.12
			c1.99-0.94,4.05-1.51,6.18-1.7C61.69,14.92,62.21,15.09,62.59,15.47"/>
		<path class="st23" d="M119.21,52.94c-3.24-1.82-5.84-4.3-7.78-7.42c-1.94-3.17-2.91-6.58-2.91-10.23c0-3.65,0.94-7.03,2.84-10.16
			c1.89-3.13,4.5-5.61,7.81-7.46c3.22-1.8,6.75-2.7,10.59-2.7c3.74,0,7.15,0.81,10.23,2.42c3.08,1.61,5.66,3.93,7.74,6.96
			c0.28,0.43,0.43,0.81,0.43,1.14c0,0.76-0.47,1.33-1.42,1.71l-5.61,2.2c-0.33,0.14-0.66,0.21-0.99,0.21
			c-0.66,0-1.28-0.38-1.85-1.14c-2.23-2.79-5.07-4.19-8.52-4.19c-3.08,0-5.62,1.04-7.64,3.13c-2.01,2.08-3.02,4.71-3.02,7.89
			c0,2.08,0.46,3.97,1.39,5.65c0.92,1.68,2.2,3,3.84,3.94c1.63,0.95,3.47,1.42,5.5,1.42c3.6,0,6.51-1.37,8.74-4.12
			c0.57-0.71,1.21-1.07,1.92-1.07c0.33,0,0.66,0.07,1,0.21l5.11,1.99c0.95,0.38,1.42,0.95,1.42,1.7c0,0.33-0.12,0.69-0.36,1.07
			c-3.84,6.39-9.78,9.59-17.83,9.59C125.99,55.67,122.45,54.76,119.21,52.94"/>
		<path class="st23" d="M152.09,0.57c0.38-0.38,0.9-0.57,1.56-0.57h6.39c0.66,0,1.18,0.19,1.56,0.57c0.38,0.38,0.57,0.9,0.57,1.56
			v30.1l12.29-15.2c0.62-0.8,1.47-1.21,2.56-1.21h7.96c0.61,0,1.08,0.12,1.39,0.36c0.31,0.24,0.46,0.55,0.46,0.92
			c0,0.38-0.21,0.83-0.64,1.35l-13.43,15.56l14.28,18.04c0.38,0.52,0.57,0.97,0.57,1.35c0,0.38-0.17,0.69-0.5,0.92
			c-0.33,0.24-0.78,0.36-1.35,0.36h-7.88c-1.09,0-1.96-0.43-2.63-1.28l-9.24-11.51l-3.84,4.41v6.25c0,0.66-0.19,1.18-0.57,1.56
			c-0.38,0.38-0.9,0.57-1.56,0.57h-6.39c-0.66,0-1.19-0.19-1.56-0.57c-0.38-0.38-0.57-0.9-0.57-1.56V2.13
			C151.52,1.47,151.71,0.95,152.09,0.57"/>
		<path class="st23" d="M191.69,54.11c-0.38-0.38-0.57-0.9-0.57-1.56V17.81c0-0.66,0.19-1.18,0.57-1.56
			c0.38-0.38,0.9-0.57,1.56-0.57h6.39c0.66,0,1.18,0.19,1.56,0.57c0.38,0.38,0.57,0.9,0.57,1.56v34.74c0,0.66-0.19,1.18-0.57,1.56
			c-0.38,0.38-0.9,0.57-1.56,0.57h-6.39C192.59,54.68,192.07,54.49,191.69,54.11"/>
		<path class="st23" d="M191.73,9.51c-0.38-0.38-0.57-0.9-0.57-1.56l0.18-5.39c0-0.66,0.19-1.18,0.57-1.56
			c0.38-0.38,0.9-0.57,1.56-0.57h6.39c0.66,0,1.18,0.19,1.56,0.57c0.38,0.38,0.57,0.9,0.57,1.56l-0.18,5.39
			c0,0.66-0.19,1.18-0.57,1.56c-0.38,0.38-0.9,0.57-1.56,0.57h-6.39C192.63,10.07,192.11,9.89,191.73,9.51"/>
		<path class="st23" d="M333.77,9.51c-0.38-0.38-0.57-0.9-0.57-1.56l0.18-5.39c0-0.66,0.19-1.18,0.57-1.56
			c0.38-0.38,0.9-0.57,1.56-0.57h6.39c0.66,0,1.18,0.19,1.56,0.57c0.38,0.38,0.57,0.9,0.57,1.56l-0.17,5.39
			c0,0.66-0.19,1.18-0.57,1.56c-0.38,0.38-0.9,0.57-1.56,0.57h-6.39C334.67,10.07,334.15,9.89,333.77,9.51"/>
		<path class="st23" d="M241.02,19.12c2.49,2.82,3.73,6.97,3.73,12.47v20.95c0,0.66-0.19,1.18-0.57,1.56
			c-0.38,0.38-0.9,0.57-1.56,0.57h-6.6c-0.66,0-1.18-0.19-1.56-0.57c-0.38-0.38-0.57-0.9-0.57-1.56V31.59
			c0-5.26-2.51-7.88-7.53-7.88c-2.18,0-3.99,0.83-5.43,2.49c-1.45,1.66-2.12,4.26-2.02,7.81v18.54c0,0.66-0.19,1.18-0.57,1.56
			c-0.38,0.38-0.9,0.57-1.56,0.57h-6.32c-0.66,0-1.18-0.19-1.56-0.57c-0.38-0.38-0.57-0.9-0.57-1.56V17.74
			c0-0.66,0.19-1.18,0.57-1.56c0.38-0.38,0.9-0.57,1.56-0.57h6.32c0.66,0,1.18,0.19,1.56,0.57c0.38,0.38,0.57,0.9,0.57,1.56v1.35
			c1.28-1.28,2.88-2.3,4.79-3.05c1.92-0.76,3.8-1.14,5.65-1.14C234.64,14.9,238.53,16.31,241.02,19.12"/>
		<path class="st23" d="M333.95,53.61c-0.38-0.38-0.57-0.9-0.57-1.56V17.31c0-0.66,0.19-1.18,0.57-1.56
			c0.38-0.38,0.9-0.57,1.56-0.57h6.39c0.66,0,1.18,0.19,1.56,0.57c0.38,0.38,0.57,0.9,0.57,1.56v34.74c0,0.66-0.19,1.18-0.57,1.56
			c-0.38,0.38-0.9,0.57-1.56,0.57h-6.39C334.85,54.18,334.33,53.99,333.95,53.61"/>
		<path class="st23" d="M410.68,18.73c2.72,2.89,4.08,7.01,4.08,12.36v20.95c0,0.66-0.19,1.18-0.57,1.56
			c-0.38,0.38-0.9,0.57-1.56,0.57h-6.46c-0.66,0-1.18-0.19-1.56-0.57c-0.38-0.38-0.57-0.9-0.57-1.56V31.09
			c0-2.7-0.68-4.69-2.03-5.97c-1.35-1.28-3.21-1.92-5.58-1.92c-2.08,0-3.84,0.77-5.26,2.31c-1.42,1.54-2.15,3.85-2.2,6.93v19.6
			c0,0.66-0.19,1.18-0.57,1.56c-0.38,0.38-0.9,0.57-1.56,0.57h-6.46c-0.66,0-1.19-0.19-1.56-0.57c-0.38-0.38-0.57-0.9-0.57-1.56
			V31.09c0-2.7-0.66-4.69-1.99-5.97c-1.33-1.28-3.17-1.92-5.54-1.92c-2.23,0-4.04,0.82-5.43,2.45c-1.4,1.63-2.1,4.25-2.1,7.85
			l-0.07,18.54c0,1.42-0.71,2.13-2.13,2.13h-6.32c-0.66,0-1.18-0.19-1.56-0.57c-0.38-0.38-0.57-0.9-0.57-1.56V17.24
			c0-0.66,0.19-1.18,0.57-1.56c0.38-0.38,0.9-0.57,1.56-0.57h6.32c0.66,0,1.18,0.19,1.56,0.57c0.38,0.38,0.57,0.9,0.57,1.56v1.42
			c1.37-1.23,3.03-2.25,4.97-3.05c1.94-0.81,3.72-1.21,5.33-1.21c5.49,0,9.68,1.78,12.57,5.33c1.47-1.71,3.29-3.02,5.47-3.94
			c2.18-0.92,4.55-1.39,7.11-1.39C403.92,14.4,407.95,15.85,410.68,18.73"/>
		<path class="st23" d="M103.39,15.54h-6.71c-0.89,0-1.61,0.72-1.61,1.61v1.05c-3.14-2.04-6.89-3.23-10.92-3.23
			c-11.09,0-20.07,8.99-20.07,20.07c0,11.09,8.99,20.07,20.07,20.07c4.03,0,7.78-1.19,10.92-3.23v1.13c0,0.89,0.72,1.61,1.61,1.61
			h6.71c0.89,0,1.61-0.72,1.61-1.61V17.16C105,16.26,104.28,15.54,103.39,15.54 M85.03,45.69c-5.88,0-10.64-4.76-10.64-10.64
			c0-5.88,4.76-10.64,10.64-10.64c5.88,0,10.64,4.76,10.64,10.64C95.67,40.92,90.9,45.69,85.03,45.69"/>
		<path class="st23" d="M290.77,16.18c-0.38-0.38-0.9-0.57-1.56-0.57h-6.25c-0.66,0-1.18,0.19-1.56,0.57
			c-0.38,0.38-0.57,0.9-0.57,1.56v0.64c-2.79-2.32-6.44-3.48-10.94-3.48c-4.22,0-7.84,0.88-10.87,2.63
			c-3.12,1.75-5.51,4.1-7.17,7.03c-1.14,2.02-1.89,4.23-2.25,6.62c-0.24,1.25-0.38,2.55-0.38,3.87c0,11.09,8.99,20.07,20.07,20.07
			c4.29,0,8.26-1.35,11.52-3.64c-0.11,5.87-3.44,8.8-10.01,8.8c-1.99,0-3.93-0.27-5.82-0.82c-1.89-0.54-3.6-1.31-5.12-2.31
			c-0.47-0.28-0.92-0.43-1.35-0.43c-0.62,0-1.16,0.33-1.63,1l-2.77,4.05c-0.33,0.47-0.5,0.92-0.5,1.35c0,0.61,0.33,1.14,1,1.56
			c4.69,3.13,10.35,4.69,16.98,4.69c6.2,0,11.05-1.61,14.53-4.83c3.48-3.22,5.22-7.67,5.22-13.35V17.74
			C291.34,17.08,291.15,16.56,290.77,16.18 M270.19,45.74c-5.88,0-10.64-4.76-10.64-10.64c0-5.88,4.76-10.64,10.64-10.64
			c5.88,0,10.64,4.76,10.64,10.64C280.82,40.98,276.06,45.74,270.19,45.74"/>
		<path class="st23" d="M429.96,53.09c-8.55-3.94-11.06-13.19-11.06-18.04c0-3.97,0.93-7.47,2.78-10.5
			c1.85-3.03,4.38-5.38,7.57-7.04c3.19-1.65,6.41-2.68,10.35-2.51c4.04,0.18,5.73,0.76,8.76,2.27c3.03,1.52,5.51,3.7,7.43,6.55
			c1.27,1.87,2.09,3.69,2.47,5.46c0.38,1.77,0.56,3.85,0.56,6.23c0,0.98-0.26,1.8-0.77,2.45c-0.52,0.65-1.24,0.98-2.18,0.98H429.9
			c0.52,2.43,5,8.47,13.88,6c1.42-0.39,2.57-1.45,3.65-2.48c0.61-0.51,1.15-1.17,1.66-1.17c0.42,0,0.85,0.14,1.27,0.42l4.44,2.37
			c0.75,0.42,1.13,0.93,1.13,1.54c0,0.38-0.19,0.82-0.56,1.33c-4.32,4.81-8.94,8.16-15.75,8.16
			C436.33,55.12,433.11,54.44,429.96,53.09 M429.9,31.52h19.35c-0.53-1.29-1.2-2.37-1.97-3.45c-0.77-1.08-3.85-3.65-7.5-3.65
			C433.24,24.41,430.12,29.49,429.9,31.52z"/>
	</g>
	<g>
		<g>
			<path class="st23" d="M480.07,55.55c2.89-0.65,4.97-3.27,5.14-6.37c0.44-8.25-1.3-23.85,8.74-27.44l-11.9-6.62
				c-4.79-2.07-10.14,1.45-10.14,6.67v26.54C471.9,52.84,475.9,56.07,480.07,55.55z"/>
			<path class="st23" d="M505.08,27.93l-5.13-2.85l-0.01,0c-9.1,3.15-8.65,16.05-8.77,24.66l13.99-8.08
				c2.7-1.21,4.43-3.89,4.43-6.85v0C509.61,31.82,507.92,29.54,505.08,27.93z"/>
		</g>
		<path class="st23" d="M500.01,25.02c-5.65,2.01-7.03,7.53-7.03,7.53c1.45-3.03,4.68-5.35,8.25-5.35h0c1.8,0,3.47,0.53,4.88,1.45
			C506.12,28.65,506.67,28.66,500.01,25.02z"/>
		<path class="st23" d="M476.64,54.65L476.64,54.65c-0.4,0-0.8-0.03-1.18-0.08c1.35,0.81,2.97,1.19,4.61,0.98
			c2.89-0.65,4.97-3.27,5.14-6.37c0.02-0.28,0.03-0.58,0.04-0.88C484.11,51.97,480.67,54.65,476.64,54.65z"/>
	</g>
</g>
</svg>
